<?xml version="1.0" encoding="UTF-8" standalone="no"?>
<!-- Created with Inkscape (http://www.inkscape.org/) -->

<svg
   version="1.1"
   id="svg1"
   width="1378.783"
   height="499.39761"
   viewBox="0 0 1378.783 499.39761"
   xmlns="http://www.w3.org/2000/svg"
   xmlns:svg="http://www.w3.org/2000/svg">
  <defs
     id="defs1" />
  <path
     id="path3"
     style="display:inline;fill:#daa010;fill-opacity:1"
     d="m 173.69697,180.56754 c -88.041725,5.3e-4 -159.413523,71.37233 -159.414053,159.41406 -5.52e-4,88.0425 71.371563,159.41549 159.414053,159.41602 52.77536,1.9e-4 102.13027,-26.11868 131.8125,-69.75586 0,0 22.11612,-35.1211 36.62696,-35.1211 14.51084,0 12.82422,4.31536 12.82422,15.44727 0,16.45586 -3.58145,14.61719 14.13281,14.61719 17.03667,0 13.45508,1.25788 13.45508,-14.61719 0,-13.6487 1.06517,-15.44727 9.9707,-15.44727 h 11.03516 l 24.8457,-24.29882 c 2.2123,-2.16355 5.75695,-2.13304 7.93164,0.0684 l 23.52344,23.8086 c 2.46999,2.5 6.50657,2.5 8.97656,0 l 23.37695,-23.66016 c 2.24438,-2.27129 5.91187,-2.27129 8.15625,0 l 23.72071,24.00776 c 2.28154,2.30863 6.00947,2.30863 8.29101,0 l 23.44922,-23.73242 c 2.46284,-2.49291 6.42063,-2.69537 9.125,-0.46679 l 22.29492,18.37695 c 2.83,2.33257 6.9161,2.33257 9.7461,0 l 23.06054,-19.00781 c 2.27036,-1.872 5.5939,-1.70256 7.66211,0.39062 l 24.48047,24.7793 c 2.11064,2.13648 5.54837,2.17393 7.70508,0.084 l 60.81836,-58.91797 c 1.88153,-1.8222 1.88768,-4.83806 0.0137,-6.66796 l -41.68753,-40.71877 h -324.3125 c -14.86342,0.0481 -25.5544,-3.51815 -33.15625,-8.12305 -24.29708,-60.34635 -82.82486,-99.87505 -147.87891,-99.875 z m 799.19141,29.83008 -11.37891,31.75781 h 11.59571 l 22.65234,-31.75781 z m 146.85932,46.17187 c -18.6418,0 -34.1033,6.50383 -46.3867,19.50977 -14.6678,15.53486 -22.0019,37.39078 -22.0019,65.57031 0,24.49451 5.7067,44.29319 17.123,59.39453 12.5724,16.76321 29.6614,25.14453 51.2656,25.14453 31.2143,0 51.265,-15.46344 60.1524,-46.38867 l -18.4239,-6.28516 c -5.4914,24.42226 -19.3293,36.63282 -41.5117,36.63282 -13.2226,0 -24.132,-5.13039 -32.7304,-15.39063 -10.3325,-12.35564 -15.5,-30.16546 -15.5,-53.43164 0,-20.44822 4.0109,-36.74198 12.0312,-48.88086 8.7429,-13.29495 20.8089,-19.94336 36.1992,-19.94336 20.954,0 34.1766,12.03082 39.668,36.0918 l 19.1836,-5.20117 c -3.4683,-13.80075 -9.7181,-24.7121 -18.75,-32.73242 -10.6215,-9.39318 -24.0609,-14.08985 -40.3184,-14.08985 z m -326.66596,2.92578 v 163.55078 h 19.29297 v -78.03711 h 63.07812 v -16.25585 h -63.07812 v -53 h 83.45508 v -16.25782 z m 163.55078,0 -52.5664,163.55078 h 18.85937 l 16.47266,-51.91601 h 58.31054 l 15.82421,51.91601 h 20.1601 L 981.12666,259.49527 Z m 255.89058,0 v 163.55078 h 19.293 V 259.49527 Z m 65.8965,0 v 163.55078 h 100.3633 v -16.47461 h -81.0703 V 259.49527 Z m -312.03317,14.84961 h 3.35937 c 4.55214,17.77479 8.41846,31.75538 11.59766,41.94336 l 12.13867,39.77735 h -50.39844 l 12.03125,-39.99415 c 3.82947,-12.4279 7.58642,-26.3362 11.27149,-41.72656 z m -833.67774,21.10938 c 24.59247,-9.2e-4 44.52914,19.93487 44.5293,44.52734 -1.6e-4,24.59247 -19.93683,44.52827 -44.5293,44.52734 -24.5917,-1.5e-4 -44.527174,-19.93564 -44.527336,-44.52734 1.62e-4,-24.5917 19.935636,-44.52718 44.527336,-44.52734 z m 213.29102,36.99804 h 354.14453 c 1.60881,0 2.9043,0.39531 2.9043,2.9043 0,2.55785 -16.17894,18.45117 -21.83789,18.45117 H 345.99971 c -1.6088,0 -2.9043,-1.29548 -2.9043,-2.90429 V 335.3566 c 0,-1.6088 1.2955,-2.9043 2.9043,-2.9043 z" />
  <path
     id="path5"
     style="fill:#6f5316;fill-opacity:1;stroke-width:1.15036"
     d="m 179.61885,0.00112573 c -1.58282,-0.0247 -3.14599,0.3553 -4.54102,1.10352007 L 1.0036253,94.389796 c -1.36624995,0.7318 -1.33000995,2.7023 0.0625,3.38282 L 45.872765,118.63394 c 2.57161,1.25861 6.66815,2.18561 9.15429,0.76563 100.759295,-57.549604 141.215045,-57.842624 242.894525,0 3.21352,1.82809 8.40173,1.08297 11.60352,-0.76563 l 22.06055,-12.73437 v 62.02344 c 2.5e-4,2.12651 -0.56008,4.21487 -1.62305,6.05664 l -3.17383,5.49805 c -1.66014,2.87511 -1.78317,6.38693 -0.32812,9.37109 l 4.3164,8.84961 c 0.44725,0.91703 0.45904,2.40915 0.041,3.33984 -2.27718,5.06979 -8.83789,20.31104 -8.83789,27.59961 0,12.60485 0.0882,14.3418 9.60547,14.3418 h 15.01562 c 9.13377,0 8.60742,-2.03609 8.60742,-14.3418 0,-8.40126 -5.98174,-23.14084 -7.97265,-27.81445 -0.34567,-0.81146 -0.32396,-2.11012 0.0625,-2.9043 l 4.46289,-9.16992 c 1.42236,-2.92142 1.30353,-6.35828 -0.31836,-9.17383 l -3.13086,-5.43359 c -1.12202,-1.94834 -1.7113,-4.15792 -1.71094,-6.40625 V 96.258936 c 2.2e-4,-0.0165 2.2e-4,-0.0323 0,-0.0488 0.0255,-0.69522 -0.33547,-1.34865 -0.9375,-1.69727 L 184.1208,1.2452658 C 182.7503,0.45400573 181.20117,0.02616573 179.61885,0.00112573 Z M 656.85127,29.235506 c -18.64184,0 -34.10333,6.50382 -46.38672,19.50976 -14.6678,15.53487 -22.00195,37.39078 -22.00195,65.570324 0,24.49451 5.70868,44.29319 17.125,59.39453 12.57241,16.7632 29.65936,25.14453 51.26367,25.14453 31.21425,0 51.26496,-15.46149 60.15235,-46.38672 l -18.42383,-6.28711 c -5.4914,24.42226 -19.32938,36.63281 -41.51172,36.63281 -13.22271,0 -24.1321,-5.13038 -32.73047,-15.39062 -10.33249,-12.35564 -15.5,-30.16546 -15.5,-53.43164 0,-20.448224 4.01092,-36.741984 12.03125,-48.880864 8.74288,-13.29496 20.80886,-19.94336 36.19922,-19.94336 20.954,0 34.17657,12.03081 39.66797,36.09179 l 19.18554,-5.20117 c -3.46825,-13.80074 -9.72005,-24.71209 -18.75195,-32.73242 -10.62152,-9.39318 -24.06094,-14.08984 -40.31836,-14.08984 z m 92.77735,2.92578 V 195.71207 h 19.29101 v -77.60156 h 80.41992 v 77.60156 h 19.29299 V 32.161286 H 849.33955 V 101.6359 H 768.91963 V 32.161286 Z m 202.24222,0 -52.5664,163.550784 h 18.8593 l 16.4727,-51.91602 h 58.3105 l 15.82426,51.91602 h 20.1582 L 976.36494,32.161286 Z m 82.80266,0 52.3496,163.550784 h 24.2773 l 53,-163.550784 h -19.2929 l -28.6133,93.859374 c -2.0231,6.64748 -4.3343,14.84907 -6.9355,24.60352 -3.9741,14.88457 -6.467,24.13333 -7.4786,27.74609 h -3.5761 c -1.5896,-5.34688 -3.9028,-13.58363 -6.9375,-24.71093 -3.2515,-12.13888 -5.889,-21.56738 -7.9121,-28.28711 l -27.9629,-93.210944 z m 160.1914,0 V 195.71207 h 104.4805 v -16.25781 h -85.1895 v -62.42774 h 63.2969 v -16.25781 h -63.2969 V 48.419096 h 83.6719 v -16.25781 z m -233.24016,14.84961 h 3.3593 c 4.5521,17.77478 8.4184,31.75537 11.5977,41.94336 l 12.1387,39.777344 h -50.3985 l 12.0313,-39.994144 c 3.8295,-12.4279 7.5865,-26.3362 11.2715,-41.72656 z m -791.8262,49.29883 c -34.63404,0.637 -68.16344,13.464664 -108.183595,36.570314 v 56.24219 c 78.136075,-45.11187 147.996665,-43.29755 222.990235,0 V 132.88004 C 240.17174,107.22639 204.43257,95.672726 169.79854,96.309726 Z" />
</svg>
